<?xml version="1.0" standalone="no"?>
<!DOCTYPE svg PUBLIC "-//W3C//DTD SVG 20010904//EN"
 "http://www.w3.org/TR/2001/REC-SVG-20010904/DTD/svg10.dtd">
<svg version="1.0" xmlns="http://www.w3.org/2000/svg"
 width="1200.000000pt" height="675.000000pt" viewBox="0 0 1200.000000 675.000000"
 preserveAspectRatio="xMidYMid meet">

<g transform="translate(0.000000,675.000000) scale(0.100000,-0.100000)"
fill="#000000" stroke="none">
<path d="M3712 6024 l-22 -15 0 -1373 0 -1372 -77 -38 c-73 -36 -80 -38 -142
-32 -36 4 -95 13 -130 21 -59 12 -69 18 -112 68 -59 67 -91 81 -169 75 -48 -3
-67 -10 -97 -35 -52 -42 -99 -124 -119 -208 -22 -96 -29 -329 -15 -488 l12
-132 -35 -121 c-69 -239 -151 -749 -206 -1288 -10 -97 -9 -111 4 -118 22 -12
23 -113 1 -122 -11 -4 -15 -21 -15 -61 l0 -55 -380 0 c-247 0 -380 -4 -380
-10 0 -7 1397 -10 4170 -10 2773 0 4170 3 4170 10 0 6 -96 10 -267 11 -234 1
-262 2 -218 13 68 17 110 40 159 90 165 164 118 437 -92 538 -57 27 -78 32
-144 32 -65 0 -85 -5 -141 -32 -122 -60 -191 -169 -191 -302 1 -155 100 -283
252 -325 42 -12 18 -13 -215 -14 l-263 -1 0 54 c0 53 -1 55 -31 61 -18 4 -73
4 -124 0 -107 -8 -149 -27 -171 -80 -14 -33 -17 -35 -64 -35 l-50 0 0 65 0 65
-115 0 c-78 0 -127 -5 -150 -14 -35 -15 -75 -67 -75 -98 0 -17 -111 -18 -2207
-17 -1278 1 -2183 5 -2149 10 32 5 61 11 65 14 3 3 -3 21 -13 40 -26 48 -75
69 -143 61 l-54 -6 3 102 c3 99 4 103 26 106 21 3 23 8 18 40 -7 46 -63 475
-72 556 -4 37 -23 93 -49 150 -23 50 -54 116 -68 146 -13 30 -66 145 -117 255
-116 251 -140 324 -140 431 0 45 -5 128 -12 185 -6 57 -12 116 -12 132 l-1 27
100 3 c99 3 101 3 163 45 71 47 82 50 82 23 0 -11 7 -27 16 -35 14 -14 227
-16 2199 -16 1972 0 2185 2 2199 16 14 14 16 164 16 1504 l0 1489 -22 15 c-20
14 -245 16 -2193 16 -1948 0 -2173 -2 -2193 -16z m4385 -16 c9 -7 13 -41 13
-114 l0 -104 -2205 0 -2205 0 0 98 c0 102 8 127 44 134 11 1 992 2 2180 0
1545 -2 2163 -6 2173 -14z m13 -1597 c0 -1232 -2 -1371 -16 -1385 -14 -14
-226 -16 -2186 -16 -2007 0 -2173 1 -2190 17 -39 35 -24 54 100 132 64 41 127
83 139 94 19 17 25 17 56 6 29 -10 39 -9 67 5 32 15 35 15 79 -6 37 -18 63
-23 131 -23 73 0 93 4 142 28 74 36 150 119 174 189 21 60 23 154 6 214 -28
95 -117 187 -216 220 -71 24 -185 15 -253 -19 -134 -69 -208 -212 -182 -354 6
-32 17 -70 25 -85 14 -27 13 -29 -18 -48 -18 -11 -42 -20 -54 -20 -11 0 -61
-20 -110 -44 -49 -24 -92 -42 -96 -39 -10 5 -11 2487 -1 2496 3 4 996 7 2205
7 l2198 0 0 -1369z m-3704 -552 c73 -28 133 -82 169 -156 24 -48 29 -71 29
-133 0 -130 -66 -234 -183 -289 -113 -52 -301 -23 -301 47 0 39 -41 82 -78 82
-34 0 -49 26 -63 108 -16 102 16 197 91 273 85 85 218 112 336 68z m-1151
-1924 c76 -82 165 -178 197 -213 l59 -63 25 -132 c60 -321 93 -470 104 -477
20 -12 38 -199 21 -209 -10 -6 -11 -22 -6 -60 l7 -51 -376 0 c-364 0 -376 1
-376 19 0 51 -78 101 -157 101 -32 0 -33 1 -33 45 0 26 5 47 14 52 16 10 45
97 221 678 89 293 147 466 154 463 5 -2 70 -70 146 -153z m6470 -572 c66 -21
153 -108 178 -178 22 -64 22 -176 -1 -232 -67 -165 -265 -243 -424 -169 -80
38 -142 109 -168 193 -23 76 -24 101 -6 168 19 72 39 106 89 152 56 52 79 64
147 79 61 13 111 10 185 -13z"/>
<path d="M3818 5949 c-21 -12 -24 -59 -6 -77 27 -27 88 -3 88 34 0 17 -36 54
-52 54 -7 0 -21 -5 -30 -11z"/>
<path d="M3966 5944 c-19 -18 -21 -55 -4 -72 31 -31 88 -4 88 42 0 20 -28 46
-50 46 -10 0 -26 -7 -34 -16z"/>
<path d="M4115 5940 c-24 -27 -13 -68 22 -76 34 -9 57 6 61 42 6 49 -49 72
-83 34z"/>
<path d="M4390 4791 c-144 -46 -229 -154 -238 -301 -3 -60 0 -86 18 -132 26
-71 97 -150 164 -186 46 -24 62 -27 151 -27 85 0 106 3 143 23 67 36 129 98
159 161 37 74 40 200 7 272 -43 92 -126 164 -224 193 -68 20 -111 19 -180 -3z
m238 -39 c61 -30 114 -86 145 -152 15 -34 21 -66 21 -130 0 -106 -23 -159
-100 -229 -201 -184 -524 -43 -524 229 0 237 243 387 458 282z"/>
<path d="M4422 4638 c-8 -8 -12 -59 -12 -164 0 -122 3 -154 15 -164 12 -10 18
-10 30 0 12 10 15 42 15 164 0 143 -6 176 -30 176 -3 0 -11 -5 -18 -12z"/>
<path d="M4595 4528 c-3 -8 -4 -61 -3 -119 3 -96 4 -104 23 -104 19 0 20 7 20
115 0 101 -2 115 -18 118 -9 2 -19 -3 -22 -10z"/>
<path d="M4507 4443 c-4 -3 -7 -32 -7 -63 0 -65 18 -92 45 -70 18 15 21 110 3
128 -13 13 -31 16 -41 5z"/>
<path d="M4338 4389 c-18 -10 -17 -64 1 -82 16 -16 41 11 41 43 0 34 -19 52
-42 39z"/>
<path d="M5847 4800 c-272 -69 -354 -416 -138 -586 72 -57 141 -78 236 -72 91
6 154 36 217 101 68 71 91 138 86 247 -5 99 -35 167 -101 227 -78 70 -207 106
-300 83z m198 -39 c141 -62 221 -226 180 -367 -43 -147 -155 -233 -305 -234
-181 0 -313 130 -313 310 0 90 21 146 78 209 94 104 237 137 360 82z"/>
<path d="M6023 4572 c9 -10 17 -23 17 -28 0 -13 -83 -94 -96 -94 -6 0 -23 14
-39 30 -16 17 -35 30 -42 30 -17 0 -143 -131 -137 -142 11 -18 33 -6 77 42 51
55 65 60 93 29 42 -47 52 -45 115 17 53 52 61 57 79 46 30 -18 31 -16 28 36
l-3 47 -55 3 c-53 3 -54 3 -37 -16z"/>
<path d="M7207 3886 c-49 -18 -111 -61 -144 -100 -82 -96 -104 -247 -52 -356
34 -72 97 -136 167 -168 78 -37 204 -38 272 -3 100 53 153 112 185 210 53 161
-40 350 -201 410 -64 24 -169 27 -227 7z m246 -35 c106 -51 169 -150 175 -272
4 -67 0 -85 -23 -138 -32 -70 -94 -133 -161 -163 -116 -51 -258 -25 -346 63
-71 71 -93 124 -93 229 0 76 3 91 30 138 38 69 114 138 174 157 66 21 185 15
244 -14z"/>
<path d="M7182 3683 c3 -16 17 -18 138 -18 113 0 135 2 135 15 0 12 -23 15
-138 18 -128 2 -138 1 -135 -15z"/>
<path d="M7179 3574 c-5 -6 -6 -14 -2 -17 3 -4 69 -7 145 -7 114 0 138 3 138
14 0 12 -25 15 -136 18 -89 2 -139 -1 -145 -8z"/>
<path d="M7182 3453 c3 -16 17 -18 138 -18 113 0 135 2 135 15 0 12 -23 15
-138 18 -128 2 -138 1 -135 -15z"/>
<path d="M4265 3760 c-10 -16 25 -180 39 -180 35 0 169 36 173 46 8 21 -53
100 -90 117 -47 23 -113 32 -122 17z"/>
<path d="M4182 3704 c-13 -9 -37 -34 -53 -57 -24 -33 -29 -50 -29 -98 0 -50 4
-63 33 -101 60 -78 152 -100 237 -55 50 26 90 90 90 144 0 38 12 37 -123 3
-49 -13 -69 -15 -72 -7 -2 7 -8 35 -15 62 -21 93 -31 125 -38 125 -4 0 -18 -7
-30 -16z"/>
<path d="M9457 1213 c-12 -19 -11 -170 1 -159 4 4 8 12 8 17 1 5 2 14 3 19 0
6 16 10 34 10 26 0 36 -6 45 -25 8 -18 19 -25 39 -25 23 0 34 9 57 48 16 26
30 57 30 70 2 23 20 42 44 42 7 0 21 -15 33 -32 l20 -33 -3 35 -3 35 -152 3
c-83 1 -154 -1 -156 -5z"/>
<path d="M9678 1076 c-16 -24 -28 -54 -28 -68 0 -14 -7 -31 -15 -38 -18 -15
-65 -5 -65 14 0 23 -33 45 -62 39 -37 -7 -60 -36 -56 -70 l3 -28 149 -3 c94
-2 153 1 160 8 14 14 8 172 -7 182 -28 18 -53 7 -79 -36z"/>
<path d="M8717 4106 c-46 -17 -64 -32 -83 -67 -20 -40 -17 -73 12 -132 52
-101 82 -126 155 -127 63 0 71 -13 63 -94 -6 -63 -6 -66 18 -77 20 -8 31 -8
50 2 29 16 169 163 186 196 29 54 9 104 -70 180 -66 61 -153 107 -233 122 -32
6 -59 11 -59 11 -1 -1 -18 -7 -39 -14z"/>
<path d="M2950 3956 c-112 -25 -198 -95 -247 -203 -24 -52 -25 -63 -20 -167 5
-117 -4 -155 -41 -175 -10 -5 -56 -19 -102 -31 -149 -38 -238 -104 -292 -218
-52 -108 -40 -213 33 -297 114 -130 315 -85 414 93 14 25 44 109 66 186 22 78
51 159 64 182 45 77 116 114 215 111 112 -2 211 51 241 130 12 33 5 242 -9
270 -20 36 -88 87 -139 105 -70 24 -121 28 -183 14z"/>
<path d="M8785 3500 c-80 -26 -160 -94 -197 -164 -34 -65 -89 -216 -83 -226 4
-6 11 -10 17 -10 6 0 41 -9 78 -20 l66 -20 -3 -62 c-13 -242 -47 -431 -101
-571 -16 -42 -26 -79 -22 -82 5 -3 -4 -33 -20 -68 -72 -160 -120 -367 -120
-519 0 -102 -17 -89 156 -117 60 -10 112 -15 116 -12 4 3 32 67 63 141 31 74
70 169 87 210 41 97 52 109 45 45 -16 -135 -40 -405 -36 -409 8 -7 258 -13
269 -6 27 16 128 487 139 645 5 68 3 139 -7 220 -19 151 -21 489 -4 528 11 27
16 29 60 25 l47 -3 -4 105 c-2 65 -9 116 -18 133 -8 15 -45 61 -83 101 -98
103 -188 148 -303 153 -62 2 -97 -2 -142 -17z"/>
<path d="M7850 2647 c-104 -39 -187 -129 -215 -232 -43 -159 30 -317 181 -391
50 -25 71 -29 139 -29 135 0 238 63 296 180 32 65 50 155 32 155 -6 0 -13 -22
-16 -49 -12 -98 -81 -192 -175 -238 -48 -24 -69 -28 -137 -27 -66 0 -90 5
-137 27 -65 32 -121 89 -152 156 -31 68 -30 199 3 261 32 61 86 116 146 148
43 23 62 27 140 27 108 0 158 -21 229 -93 25 -25 48 -43 52 -40 11 12 -75 94
-128 123 -44 24 -67 30 -138 32 -54 2 -98 -2 -120 -10z"/>
<path d="M7930 2447 c-24 -12 -25 -17 -28 -111 -3 -107 8 -136 53 -136 43 0
55 29 55 128 0 81 -2 94 -22 112 -26 23 -26 23 -58 7z"/>
<path d="M7785 2358 c-29 -17 -35 -28 -35 -75 0 -69 64 -111 101 -67 21 25 16
122 -7 139 -23 17 -33 18 -59 3z"/>
<path d="M8067 2292 c-34 -37 -11 -92 37 -92 45 0 68 58 37 89 -26 26 -53 27
-74 3z"/>
</g>
</svg>
